<mxfile host="65bd71144e">
    <diagram id="baMGKt9CZxCb-NhH138U" name="Page-1">
        <mxGraphModel dx="1345" dy="779" grid="1" gridSize="10" guides="1" tooltips="1" connect="1" arrows="1" fold="1" page="1" pageScale="1" pageWidth="850" pageHeight="1100" math="0" shadow="0">
            <root>
                <mxCell id="0"/>
                <mxCell id="1" parent="0"/>
                <mxCell id="2" value="App" style="rounded=0;whiteSpace=wrap;html=1;" vertex="1" parent="1">
                    <mxGeometry x="320" y="560" width="200" height="40" as="geometry"/>
                </mxCell>
                <mxCell id="3" value="Strict" style="rounded=0;whiteSpace=wrap;html=1;" vertex="1" parent="1">
                    <mxGeometry x="320" y="600" width="200" height="20" as="geometry"/>
                </mxCell>
                <mxCell id="4" value="Router" style="rounded=0;whiteSpace=wrap;html=1;" vertex="1" parent="1">
                    <mxGeometry x="320" y="280" width="200" height="40" as="geometry"/>
                </mxCell>
                <mxCell id="5" value="GQL Provider" style="rounded=0;whiteSpace=wrap;html=1;" vertex="1" parent="1">
                    <mxGeometry x="220" y="400" width="200" height="40" as="geometry"/>
                </mxCell>
                <mxCell id="6" value="REST Provider" style="rounded=0;whiteSpace=wrap;html=1;" vertex="1" parent="1">
                    <mxGeometry x="420" y="400" width="200" height="40" as="geometry"/>
                </mxCell>
                <mxCell id="7" value="Router" style="rounded=0;whiteSpace=wrap;html=1;" vertex="1" parent="1">
                    <mxGeometry x="320" y="320" width="200" height="40" as="geometry"/>
                </mxCell>
            </root>
        </mxGraphModel>
    </diagram>
</mxfile>